# xmcd
#
# Track frame offsets:
#	150
#	7615
#	12790
#	17825
#	38300
#	50920
#	55205
#	59130
#	69165
#	72635
#	89360
#	95715
#	104585
#	112380
#	122160
#	127285
#	134870
#	150160
#
# Disc length: 2178 seconds
#
# Revision: 1
# Processed by: cddbd v1.5.2PL0 Copyright (c) Steve Scherf et al.
# Submitted via: EasyCDDAExtractor 10.0.1.1
#
DISCID=07088012
DTITLE=Johnny Lowebow - Live Flying Monkey
DYEAR=2006
DGENRE=Blues
TTITLE0=Sin City
TTITLE1=The Place I Was Born Is Now A Prison
TTITLE2=Barefooting
TTITLE3=Katrina Dog, Goat In Me
TTITLE4=Amstel Drinking Woman
TTITLE5=You Got To Move
TTITLE6=Lowebow Theme
TTITLE7=Little Darling
TTITLE8=People Are Strange
TTITLE9=Heart Attack
TTITLE10=Hot Water Corn Bread
TTITLE11=Folsom Prison
TTITLE12=Cooking the Cabbage, I Ain't Afraid To Die
TTITLE13=Summertime Blues
TTITLE14=Blank
TTITLE15=Hot Water Cornbred
TTITLE16=Two String
TTITLE17=Two String Blues
EXTD=
EXTT0=
EXTT1=
EXTT2=
EXTT3=
EXTT4=
EXTT5=
EXTT6=
EXTT7=
EXTT8=
EXTT9=
EXTT10=
EXTT11=
EXTT12=
EXTT13=
EXTT14=
EXTT15=
EXTT16=
EXTT17=
PLAYORDER=
